<svg id="logo" xmlns="http://www.w3.org/2000/svg" width="32" height="32" viewBox="0 0 32 32">
  <defs>
    <style>
      .cls-1 {
        fill: #595959;
      }
    </style>
  </defs>
  <title>3</title>
  <polygon class="cls-1" points="12 31.71 2 28.23 2.07 2.98 11.88 7.07 12 31.71"/>
  <path class="cls-1" d="M11.88,7.07,12,31.71l2.76-1,1.11-.4,1.41-2.14A9,9,0,0,0,19,29.26l4.28-1.5c0-3-6.8-2.75-6.8-7.43A4.37,4.37,0,0,1,20,15.83V13.19h3v2.66a6.19,6.19,0,0,1,3.19,1.91l-1.66,1.88a4,4,0,0,0-2.86-1.32c-1.32,0-2.06.62-2.06,1.85,0,2.61,6,2.39,6.72,6.51l.49-.17,3.1-1.32L30,.71Z"/>
</svg>
