<svg id="logo" xmlns="http://www.w3.org/2000/svg" width="32" height="32" viewBox="0 0 32 32">
  <defs>
    <style>
      .cls-1 {
        fill: #595959;
      }

      .cls-2 {
        fill: #fff;
      }
    </style>
  </defs>
  <title>1</title>
  <polygon class="cls-1" points="12 31.52 2 28.04 2.07 2.79 11.88 6.87 12 31.52"/>
  <path class="cls-1" d="M30,.52,29.92,25l-3.1,1.31-.49.17-3.07,1.08L19,29.07l-.5.18-2.61.91-1.1.39-2.76,1L11.88,6.87Z"/>
  <path class="cls-2" d="M19.61,20c0-1.23.74-1.86,2.06-1.86a4,4,0,0,1,2.86,1.32l1.66-1.88a6.07,6.07,0,0,0-3.72-2l-2.21,0a4.41,4.41,0,0,0-3.81,4.57c0,4.67,6.78,4.41,6.8,7.42l3.08-1.08C25.61,22.37,19.61,22.59,19.61,20ZM15.86,30.16l2.61-.91.5-.18A8.47,8.47,0,0,1,17.28,28Z"/>
  <rect class="cls-2" x="20" y="13" width="3" height="3"/>
</svg>
